<mxfile host="app.diagrams.net" modified="2024-06-14T05:30:32.239Z" agent="Mozilla/5.0 (Macintosh; Intel Mac OS X 10_15_7) AppleWebKit/537.36 (KHTML, like Gecko) Chrome/125.0.0.0 Safari/537.36" etag="N_Ks3KQMcJzE6-9Lxit2" version="24.5.4" type="device">
  <diagram name="Page-1" id="-VAog5KvmKPDBJXMX4o0">
    <mxGraphModel dx="2074" dy="786" grid="1" gridSize="10" guides="1" tooltips="1" connect="1" arrows="1" fold="1" page="1" pageScale="1" pageWidth="850" pageHeight="1100" math="0" shadow="0">
      <root>
        <mxCell id="0" />
        <mxCell id="1" parent="0" />
        <mxCell id="bEAzEr0WptyqBsVfE8B2-2" value="Athlete.ai Production&amp;nbsp;905418132644" style="points=[[0,0],[0.25,0],[0.5,0],[0.75,0],[1,0],[1,0.25],[1,0.5],[1,0.75],[1,1],[0.75,1],[0.5,1],[0.25,1],[0,1],[0,0.75],[0,0.5],[0,0.25]];outlineConnect=0;gradientColor=none;html=1;whiteSpace=wrap;fontSize=12;fontStyle=0;container=1;pointerEvents=0;collapsible=0;recursiveResize=0;shape=mxgraph.aws4.group;grIcon=mxgraph.aws4.group_account;strokeColor=#CD2264;fillColor=none;verticalAlign=top;align=left;spacingLeft=30;fontColor=#CD2264;dashed=0;" parent="1" vertex="1">
          <mxGeometry x="130" y="140" width="960" height="780" as="geometry" />
        </mxCell>
        <mxCell id="bEAzEr0WptyqBsVfE8B2-3" value="VPC 10.70.0.0/16" style="points=[[0,0],[0.25,0],[0.5,0],[0.75,0],[1,0],[1,0.25],[1,0.5],[1,0.75],[1,1],[0.75,1],[0.5,1],[0.25,1],[0,1],[0,0.75],[0,0.5],[0,0.25]];outlineConnect=0;gradientColor=none;html=1;whiteSpace=wrap;fontSize=12;fontStyle=0;container=1;pointerEvents=0;collapsible=0;recursiveResize=0;shape=mxgraph.aws4.group;grIcon=mxgraph.aws4.group_vpc2;strokeColor=#8C4FFF;fillColor=none;verticalAlign=top;align=left;spacingLeft=30;fontColor=#AAB7B8;dashed=0;" parent="bEAzEr0WptyqBsVfE8B2-2" vertex="1">
          <mxGeometry x="30" y="50" width="890" height="710" as="geometry" />
        </mxCell>
        <mxCell id="bEAzEr0WptyqBsVfE8B2-14" value="Private 10.70.14.0/24" style="points=[[0,0],[0.25,0],[0.5,0],[0.75,0],[1,0],[1,0.25],[1,0.5],[1,0.75],[1,1],[0.75,1],[0.5,1],[0.25,1],[0,1],[0,0.75],[0,0.5],[0,0.25]];outlineConnect=0;gradientColor=none;html=1;whiteSpace=wrap;fontSize=12;fontStyle=0;container=1;pointerEvents=0;collapsible=0;recursiveResize=0;shape=mxgraph.aws4.group;grIcon=mxgraph.aws4.group_security_group;grStroke=0;strokeColor=#00A4A6;fillColor=#E6F6F7;verticalAlign=top;align=left;spacingLeft=30;fontColor=#147EBA;dashed=0;" parent="bEAzEr0WptyqBsVfE8B2-3" vertex="1">
          <mxGeometry x="620" y="467" width="220" height="185" as="geometry" />
        </mxCell>
        <mxCell id="bEAzEr0WptyqBsVfE8B2-15" value="AZ us-east-1a" style="fillColor=none;strokeColor=#147EBA;dashed=1;verticalAlign=top;fontStyle=0;fontColor=#147EBA;whiteSpace=wrap;html=1;" parent="bEAzEr0WptyqBsVfE8B2-3" vertex="1">
          <mxGeometry x="40" y="40" width="260" height="640" as="geometry" />
        </mxCell>
        <mxCell id="bEAzEr0WptyqBsVfE8B2-16" value="AZ us-east-1a" style="fillColor=none;strokeColor=#147EBA;dashed=1;verticalAlign=top;fontStyle=0;fontColor=#147EBA;whiteSpace=wrap;html=1;" parent="bEAzEr0WptyqBsVfE8B2-3" vertex="1">
          <mxGeometry x="320" y="40" width="260" height="640" as="geometry" />
        </mxCell>
        <mxCell id="bEAzEr0WptyqBsVfE8B2-17" value="AZ us-east-1a" style="fillColor=none;strokeColor=#147EBA;dashed=1;verticalAlign=top;fontStyle=0;fontColor=#147EBA;whiteSpace=wrap;html=1;" parent="bEAzEr0WptyqBsVfE8B2-3" vertex="1">
          <mxGeometry x="600" y="40" width="260" height="640" as="geometry" />
        </mxCell>
        <mxCell id="bEAzEr0WptyqBsVfE8B2-5" value="Public 10.70.0.0/24" style="points=[[0,0],[0.25,0],[0.5,0],[0.75,0],[1,0],[1,0.25],[1,0.5],[1,0.75],[1,1],[0.75,1],[0.5,1],[0.25,1],[0,1],[0,0.75],[0,0.5],[0,0.25]];outlineConnect=0;gradientColor=none;html=1;whiteSpace=wrap;fontSize=12;fontStyle=0;container=1;pointerEvents=0;collapsible=0;recursiveResize=0;shape=mxgraph.aws4.group;grIcon=mxgraph.aws4.group_security_group;grStroke=0;strokeColor=#7AA116;fillColor=#F2F6E8;verticalAlign=top;align=left;spacingLeft=30;fontColor=#248814;dashed=0;" parent="bEAzEr0WptyqBsVfE8B2-3" vertex="1">
          <mxGeometry x="60" y="90" width="220" height="180" as="geometry" />
        </mxCell>
        <mxCell id="bEAzEr0WptyqBsVfE8B2-8" value="Private 10.70.6.0/24" style="points=[[0,0],[0.25,0],[0.5,0],[0.75,0],[1,0],[1,0.25],[1,0.5],[1,0.75],[1,1],[0.75,1],[0.5,1],[0.25,1],[0,1],[0,0.75],[0,0.5],[0,0.25]];outlineConnect=0;gradientColor=none;html=1;whiteSpace=wrap;fontSize=12;fontStyle=0;container=1;pointerEvents=0;collapsible=0;recursiveResize=0;shape=mxgraph.aws4.group;grIcon=mxgraph.aws4.group_security_group;grStroke=0;strokeColor=#00A4A6;fillColor=#E6F6F7;verticalAlign=top;align=left;spacingLeft=30;fontColor=#147EBA;dashed=0;" parent="bEAzEr0WptyqBsVfE8B2-3" vertex="1">
          <mxGeometry x="60" y="280" width="220" height="180" as="geometry" />
        </mxCell>
        <mxCell id="bEAzEr0WptyqBsVfE8B2-12" value="Private 10.70.12.0/24" style="points=[[0,0],[0.25,0],[0.5,0],[0.75,0],[1,0],[1,0.25],[1,0.5],[1,0.75],[1,1],[0.75,1],[0.5,1],[0.25,1],[0,1],[0,0.75],[0,0.5],[0,0.25]];outlineConnect=0;gradientColor=none;html=1;whiteSpace=wrap;fontSize=12;fontStyle=0;container=1;pointerEvents=0;collapsible=0;recursiveResize=0;shape=mxgraph.aws4.group;grIcon=mxgraph.aws4.group_security_group;grStroke=0;strokeColor=#00A4A6;fillColor=#E6F6F7;verticalAlign=top;align=left;spacingLeft=30;fontColor=#147EBA;dashed=0;" parent="bEAzEr0WptyqBsVfE8B2-3" vertex="1">
          <mxGeometry x="60" y="470" width="220" height="180" as="geometry" />
        </mxCell>
        <mxCell id="bEAzEr0WptyqBsVfE8B2-6" value="Public 10.70.1.0/24" style="points=[[0,0],[0.25,0],[0.5,0],[0.75,0],[1,0],[1,0.25],[1,0.5],[1,0.75],[1,1],[0.75,1],[0.5,1],[0.25,1],[0,1],[0,0.75],[0,0.5],[0,0.25]];outlineConnect=0;gradientColor=none;html=1;whiteSpace=wrap;fontSize=12;fontStyle=0;container=1;pointerEvents=0;collapsible=0;recursiveResize=0;shape=mxgraph.aws4.group;grIcon=mxgraph.aws4.group_security_group;grStroke=0;strokeColor=#7AA116;fillColor=#F2F6E8;verticalAlign=top;align=left;spacingLeft=30;fontColor=#248814;dashed=0;" parent="bEAzEr0WptyqBsVfE8B2-3" vertex="1">
          <mxGeometry x="340" y="90" width="220" height="180" as="geometry" />
        </mxCell>
        <mxCell id="d41b4V_GOKGaRPu8X4h3-7" value="NATGW" style="outlineConnect=0;dashed=0;verticalLabelPosition=bottom;verticalAlign=top;align=center;html=1;shape=mxgraph.aws3.vpc_nat_gateway;fillColor=#F58534;gradientColor=none;" vertex="1" parent="bEAzEr0WptyqBsVfE8B2-6">
          <mxGeometry x="10" y="40" width="30" height="30" as="geometry" />
        </mxCell>
        <mxCell id="bEAzEr0WptyqBsVfE8B2-9" value="Private 10.70.7.0/24" style="points=[[0,0],[0.25,0],[0.5,0],[0.75,0],[1,0],[1,0.25],[1,0.5],[1,0.75],[1,1],[0.75,1],[0.5,1],[0.25,1],[0,1],[0,0.75],[0,0.5],[0,0.25]];outlineConnect=0;gradientColor=none;html=1;whiteSpace=wrap;fontSize=12;fontStyle=0;container=1;pointerEvents=0;collapsible=0;recursiveResize=0;shape=mxgraph.aws4.group;grIcon=mxgraph.aws4.group_security_group;grStroke=0;strokeColor=#00A4A6;fillColor=#E6F6F7;verticalAlign=top;align=left;spacingLeft=30;fontColor=#147EBA;dashed=0;" parent="bEAzEr0WptyqBsVfE8B2-3" vertex="1">
          <mxGeometry x="340" y="280" width="220" height="180" as="geometry" />
        </mxCell>
        <mxCell id="bEAzEr0WptyqBsVfE8B2-13" value="Private 10.70.13.0/24" style="points=[[0,0],[0.25,0],[0.5,0],[0.75,0],[1,0],[1,0.25],[1,0.5],[1,0.75],[1,1],[0.75,1],[0.5,1],[0.25,1],[0,1],[0,0.75],[0,0.5],[0,0.25]];outlineConnect=0;gradientColor=none;html=1;whiteSpace=wrap;fontSize=12;fontStyle=0;container=1;pointerEvents=0;collapsible=0;recursiveResize=0;shape=mxgraph.aws4.group;grIcon=mxgraph.aws4.group_security_group;grStroke=0;strokeColor=#00A4A6;fillColor=#E6F6F7;verticalAlign=top;align=left;spacingLeft=30;fontColor=#147EBA;dashed=0;" parent="bEAzEr0WptyqBsVfE8B2-3" vertex="1">
          <mxGeometry x="340" y="470" width="220" height="180" as="geometry" />
        </mxCell>
        <mxCell id="d41b4V_GOKGaRPu8X4h3-14" value="Aurora PostgreSql" style="sketch=0;points=[[0,0,0],[0.25,0,0],[0.5,0,0],[0.75,0,0],[1,0,0],[0,1,0],[0.25,1,0],[0.5,1,0],[0.75,1,0],[1,1,0],[0,0.25,0],[0,0.5,0],[0,0.75,0],[1,0.25,0],[1,0.5,0],[1,0.75,0]];outlineConnect=0;fontColor=#232F3E;fillColor=#C925D1;strokeColor=#ffffff;dashed=0;verticalLabelPosition=bottom;verticalAlign=top;align=center;html=1;fontSize=12;fontStyle=0;aspect=fixed;shape=mxgraph.aws4.resourceIcon;resIcon=mxgraph.aws4.aurora;" vertex="1" parent="bEAzEr0WptyqBsVfE8B2-13">
          <mxGeometry x="85.25" y="64.75" width="49.5" height="49.5" as="geometry" />
        </mxCell>
        <mxCell id="d41b4V_GOKGaRPu8X4h3-15" value="Multi-Az Deployment" style="fillColor=none;strokeColor=#147EBA;dashed=1;verticalAlign=top;fontStyle=0;fontColor=#147EBA;whiteSpace=wrap;html=1;labelPosition=center;verticalLabelPosition=bottom;align=center;" vertex="1" parent="bEAzEr0WptyqBsVfE8B2-13">
          <mxGeometry x="-205" y="50" width="630" height="102" as="geometry" />
        </mxCell>
        <mxCell id="bEAzEr0WptyqBsVfE8B2-7" value="Public 10.70.2.0/24" style="points=[[0,0],[0.25,0],[0.5,0],[0.75,0],[1,0],[1,0.25],[1,0.5],[1,0.75],[1,1],[0.75,1],[0.5,1],[0.25,1],[0,1],[0,0.75],[0,0.5],[0,0.25]];outlineConnect=0;gradientColor=none;html=1;whiteSpace=wrap;fontSize=12;fontStyle=0;container=1;pointerEvents=0;collapsible=0;recursiveResize=0;shape=mxgraph.aws4.group;grIcon=mxgraph.aws4.group_security_group;grStroke=0;strokeColor=#7AA116;fillColor=#F2F6E8;verticalAlign=top;align=left;spacingLeft=30;fontColor=#248814;dashed=0;" parent="bEAzEr0WptyqBsVfE8B2-3" vertex="1">
          <mxGeometry x="620" y="85" width="220" height="185" as="geometry" />
        </mxCell>
        <mxCell id="d41b4V_GOKGaRPu8X4h3-3" value="" style="sketch=0;outlineConnect=0;fontColor=#232F3E;gradientColor=none;strokeColor=#232F3E;fillColor=#ffffff;dashed=0;verticalLabelPosition=bottom;verticalAlign=top;align=center;html=1;fontSize=12;fontStyle=0;aspect=fixed;shape=mxgraph.aws4.resourceIcon;resIcon=mxgraph.aws4.elastic_network_interface;" vertex="1" parent="bEAzEr0WptyqBsVfE8B2-7">
          <mxGeometry x="20" y="139" width="40" height="40" as="geometry" />
        </mxCell>
        <mxCell id="d41b4V_GOKGaRPu8X4h3-8" value="NATGW" style="outlineConnect=0;dashed=0;verticalLabelPosition=bottom;verticalAlign=top;align=center;html=1;shape=mxgraph.aws3.vpc_nat_gateway;fillColor=#F58534;gradientColor=none;" vertex="1" parent="bEAzEr0WptyqBsVfE8B2-7">
          <mxGeometry x="10" y="45" width="30" height="30" as="geometry" />
        </mxCell>
        <mxCell id="bEAzEr0WptyqBsVfE8B2-10" value="Private 10.70.8.0/24" style="points=[[0,0],[0.25,0],[0.5,0],[0.75,0],[1,0],[1,0.25],[1,0.5],[1,0.75],[1,1],[0.75,1],[0.5,1],[0.25,1],[0,1],[0,0.75],[0,0.5],[0,0.25]];outlineConnect=0;gradientColor=none;html=1;whiteSpace=wrap;fontSize=12;fontStyle=0;container=1;pointerEvents=0;collapsible=0;recursiveResize=0;shape=mxgraph.aws4.group;grIcon=mxgraph.aws4.group_security_group;grStroke=0;strokeColor=#00A4A6;fillColor=#E6F6F7;verticalAlign=top;align=left;spacingLeft=30;fontColor=#147EBA;dashed=0;" parent="bEAzEr0WptyqBsVfE8B2-3" vertex="1">
          <mxGeometry x="620" y="275" width="220" height="185" as="geometry" />
        </mxCell>
        <mxCell id="JZfbueY3oxo93cXWS5LI-1" value="NATGW" style="outlineConnect=0;dashed=0;verticalLabelPosition=bottom;verticalAlign=top;align=center;html=1;shape=mxgraph.aws3.vpc_nat_gateway;fillColor=#F58534;gradientColor=none;" parent="bEAzEr0WptyqBsVfE8B2-3" vertex="1">
          <mxGeometry x="70" y="130" width="30" height="30" as="geometry" />
        </mxCell>
        <mxCell id="d41b4V_GOKGaRPu8X4h3-5" style="edgeStyle=orthogonalEdgeStyle;rounded=0;orthogonalLoop=1;jettySize=auto;html=1;endArrow=none;endFill=0;dashed=1;" edge="1" parent="bEAzEr0WptyqBsVfE8B2-3" source="d41b4V_GOKGaRPu8X4h3-1" target="d41b4V_GOKGaRPu8X4h3-3">
          <mxGeometry relative="1" as="geometry">
            <Array as="points">
              <mxPoint x="660" y="215" />
            </Array>
          </mxGeometry>
        </mxCell>
        <mxCell id="d41b4V_GOKGaRPu8X4h3-6" style="edgeStyle=orthogonalEdgeStyle;rounded=0;orthogonalLoop=1;jettySize=auto;html=1;endArrow=none;endFill=0;dashed=1;" edge="1" parent="bEAzEr0WptyqBsVfE8B2-3" source="d41b4V_GOKGaRPu8X4h3-1" target="d41b4V_GOKGaRPu8X4h3-4">
          <mxGeometry relative="1" as="geometry">
            <Array as="points">
              <mxPoint x="240" y="215" />
            </Array>
          </mxGeometry>
        </mxCell>
        <mxCell id="d41b4V_GOKGaRPu8X4h3-1" value="ALB" style="sketch=0;outlineConnect=0;fontColor=#232F3E;gradientColor=none;fillColor=#8C4FFF;strokeColor=none;dashed=0;verticalLabelPosition=bottom;verticalAlign=top;align=center;html=1;fontSize=12;fontStyle=0;aspect=fixed;pointerEvents=1;shape=mxgraph.aws4.application_load_balancer;" vertex="1" parent="bEAzEr0WptyqBsVfE8B2-3">
          <mxGeometry x="420" y="190" width="50" height="50" as="geometry" />
        </mxCell>
        <mxCell id="d41b4V_GOKGaRPu8X4h3-4" value="" style="sketch=0;outlineConnect=0;fontColor=#232F3E;gradientColor=none;strokeColor=#232F3E;fillColor=#ffffff;dashed=0;verticalLabelPosition=bottom;verticalAlign=top;align=center;html=1;fontSize=12;fontStyle=0;aspect=fixed;shape=mxgraph.aws4.resourceIcon;resIcon=mxgraph.aws4.elastic_network_interface;" vertex="1" parent="bEAzEr0WptyqBsVfE8B2-3">
          <mxGeometry x="220" y="224" width="40" height="40" as="geometry" />
        </mxCell>
        <mxCell id="d41b4V_GOKGaRPu8X4h3-18" value="ECS Cluster" style="sketch=0;points=[[0,0,0],[0.25,0,0],[0.5,0,0],[0.75,0,0],[1,0,0],[0,1,0],[0.25,1,0],[0.5,1,0],[0.75,1,0],[1,1,0],[0,0.25,0],[0,0.5,0],[0,0.75,0],[1,0.25,0],[1,0.5,0],[1,0.75,0]];outlineConnect=0;fontColor=#232F3E;fillColor=#ED7100;strokeColor=#ffffff;dashed=0;verticalLabelPosition=bottom;verticalAlign=top;align=center;html=1;fontSize=12;fontStyle=0;aspect=fixed;shape=mxgraph.aws4.resourceIcon;resIcon=mxgraph.aws4.ecs;" vertex="1" parent="bEAzEr0WptyqBsVfE8B2-3">
          <mxGeometry x="419.25" y="334" width="51.5" height="51.5" as="geometry" />
        </mxCell>
        <mxCell id="bEAzEr0WptyqBsVfE8B2-18" value="Athlete.ai Staging 905418009670" style="points=[[0,0],[0.25,0],[0.5,0],[0.75,0],[1,0],[1,0.25],[1,0.5],[1,0.75],[1,1],[0.75,1],[0.5,1],[0.25,1],[0,1],[0,0.75],[0,0.5],[0,0.25]];outlineConnect=0;gradientColor=none;html=1;whiteSpace=wrap;fontSize=12;fontStyle=0;container=1;pointerEvents=0;collapsible=0;recursiveResize=0;shape=mxgraph.aws4.group;grIcon=mxgraph.aws4.group_account;strokeColor=#CD2264;fillColor=none;verticalAlign=top;align=left;spacingLeft=30;fontColor=#CD2264;dashed=0;" parent="1" vertex="1">
          <mxGeometry x="1200" y="140" width="960" height="780" as="geometry" />
        </mxCell>
        <mxCell id="bEAzEr0WptyqBsVfE8B2-19" value="VPC 10.80.0.0/16" style="points=[[0,0],[0.25,0],[0.5,0],[0.75,0],[1,0],[1,0.25],[1,0.5],[1,0.75],[1,1],[0.75,1],[0.5,1],[0.25,1],[0,1],[0,0.75],[0,0.5],[0,0.25]];outlineConnect=0;gradientColor=none;html=1;whiteSpace=wrap;fontSize=12;fontStyle=0;container=1;pointerEvents=0;collapsible=0;recursiveResize=0;shape=mxgraph.aws4.group;grIcon=mxgraph.aws4.group_vpc2;strokeColor=#8C4FFF;fillColor=none;verticalAlign=top;align=left;spacingLeft=30;fontColor=#AAB7B8;dashed=0;" parent="bEAzEr0WptyqBsVfE8B2-18" vertex="1">
          <mxGeometry x="30" y="50" width="890" height="710" as="geometry" />
        </mxCell>
        <mxCell id="bEAzEr0WptyqBsVfE8B2-20" value="AZ us-east-1a" style="fillColor=none;strokeColor=#147EBA;dashed=1;verticalAlign=top;fontStyle=0;fontColor=#147EBA;whiteSpace=wrap;html=1;" parent="bEAzEr0WptyqBsVfE8B2-19" vertex="1">
          <mxGeometry x="40" y="40" width="260" height="640" as="geometry" />
        </mxCell>
        <mxCell id="bEAzEr0WptyqBsVfE8B2-21" value="AZ us-east-1a" style="fillColor=none;strokeColor=#147EBA;dashed=1;verticalAlign=top;fontStyle=0;fontColor=#147EBA;whiteSpace=wrap;html=1;" parent="bEAzEr0WptyqBsVfE8B2-19" vertex="1">
          <mxGeometry x="320" y="40" width="260" height="640" as="geometry" />
        </mxCell>
        <mxCell id="bEAzEr0WptyqBsVfE8B2-22" value="AZ us-east-1a" style="fillColor=none;strokeColor=#147EBA;dashed=1;verticalAlign=top;fontStyle=0;fontColor=#147EBA;whiteSpace=wrap;html=1;" parent="bEAzEr0WptyqBsVfE8B2-19" vertex="1">
          <mxGeometry x="600" y="40" width="260" height="640" as="geometry" />
        </mxCell>
        <mxCell id="bEAzEr0WptyqBsVfE8B2-23" value="Public 10.80.0.0/24" style="points=[[0,0],[0.25,0],[0.5,0],[0.75,0],[1,0],[1,0.25],[1,0.5],[1,0.75],[1,1],[0.75,1],[0.5,1],[0.25,1],[0,1],[0,0.75],[0,0.5],[0,0.25]];outlineConnect=0;gradientColor=none;html=1;whiteSpace=wrap;fontSize=12;fontStyle=0;container=1;pointerEvents=0;collapsible=0;recursiveResize=0;shape=mxgraph.aws4.group;grIcon=mxgraph.aws4.group_security_group;grStroke=0;strokeColor=#7AA116;fillColor=#F2F6E8;verticalAlign=top;align=left;spacingLeft=30;fontColor=#248814;dashed=0;" parent="bEAzEr0WptyqBsVfE8B2-19" vertex="1">
          <mxGeometry x="60" y="90" width="220" height="180" as="geometry" />
        </mxCell>
        <mxCell id="bEAzEr0WptyqBsVfE8B2-24" value="Private 10.80.6.0/24" style="points=[[0,0],[0.25,0],[0.5,0],[0.75,0],[1,0],[1,0.25],[1,0.5],[1,0.75],[1,1],[0.75,1],[0.5,1],[0.25,1],[0,1],[0,0.75],[0,0.5],[0,0.25]];outlineConnect=0;gradientColor=none;html=1;whiteSpace=wrap;fontSize=12;fontStyle=0;container=1;pointerEvents=0;collapsible=0;recursiveResize=0;shape=mxgraph.aws4.group;grIcon=mxgraph.aws4.group_security_group;grStroke=0;strokeColor=#00A4A6;fillColor=#E6F6F7;verticalAlign=top;align=left;spacingLeft=30;fontColor=#147EBA;dashed=0;" parent="bEAzEr0WptyqBsVfE8B2-19" vertex="1">
          <mxGeometry x="60" y="280" width="220" height="180" as="geometry" />
        </mxCell>
        <mxCell id="bEAzEr0WptyqBsVfE8B2-25" value="Private 10.80.12.0/24" style="points=[[0,0],[0.25,0],[0.5,0],[0.75,0],[1,0],[1,0.25],[1,0.5],[1,0.75],[1,1],[0.75,1],[0.5,1],[0.25,1],[0,1],[0,0.75],[0,0.5],[0,0.25]];outlineConnect=0;gradientColor=none;html=1;whiteSpace=wrap;fontSize=12;fontStyle=0;container=1;pointerEvents=0;collapsible=0;recursiveResize=0;shape=mxgraph.aws4.group;grIcon=mxgraph.aws4.group_security_group;grStroke=0;strokeColor=#00A4A6;fillColor=#E6F6F7;verticalAlign=top;align=left;spacingLeft=30;fontColor=#147EBA;dashed=0;" parent="bEAzEr0WptyqBsVfE8B2-19" vertex="1">
          <mxGeometry x="60" y="470" width="220" height="180" as="geometry" />
        </mxCell>
        <mxCell id="bEAzEr0WptyqBsVfE8B2-26" value="Public 10.80.1.0/24" style="points=[[0,0],[0.25,0],[0.5,0],[0.75,0],[1,0],[1,0.25],[1,0.5],[1,0.75],[1,1],[0.75,1],[0.5,1],[0.25,1],[0,1],[0,0.75],[0,0.5],[0,0.25]];outlineConnect=0;gradientColor=none;html=1;whiteSpace=wrap;fontSize=12;fontStyle=0;container=1;pointerEvents=0;collapsible=0;recursiveResize=0;shape=mxgraph.aws4.group;grIcon=mxgraph.aws4.group_security_group;grStroke=0;strokeColor=#7AA116;fillColor=#F2F6E8;verticalAlign=top;align=left;spacingLeft=30;fontColor=#248814;dashed=0;" parent="bEAzEr0WptyqBsVfE8B2-19" vertex="1">
          <mxGeometry x="340" y="90" width="220" height="180" as="geometry" />
        </mxCell>
        <mxCell id="d41b4V_GOKGaRPu8X4h3-2" value="ALB" style="sketch=0;outlineConnect=0;fontColor=#232F3E;gradientColor=none;fillColor=#8C4FFF;strokeColor=none;dashed=0;verticalLabelPosition=bottom;verticalAlign=top;align=center;html=1;fontSize=12;fontStyle=0;aspect=fixed;pointerEvents=1;shape=mxgraph.aws4.application_load_balancer;" vertex="1" parent="bEAzEr0WptyqBsVfE8B2-26">
          <mxGeometry x="87.5" y="100" width="50" height="50" as="geometry" />
        </mxCell>
        <mxCell id="bEAzEr0WptyqBsVfE8B2-27" value="Private 10.80.7.0/24" style="points=[[0,0],[0.25,0],[0.5,0],[0.75,0],[1,0],[1,0.25],[1,0.5],[1,0.75],[1,1],[0.75,1],[0.5,1],[0.25,1],[0,1],[0,0.75],[0,0.5],[0,0.25]];outlineConnect=0;gradientColor=none;html=1;whiteSpace=wrap;fontSize=12;fontStyle=0;container=1;pointerEvents=0;collapsible=0;recursiveResize=0;shape=mxgraph.aws4.group;grIcon=mxgraph.aws4.group_security_group;grStroke=0;strokeColor=#00A4A6;fillColor=#E6F6F7;verticalAlign=top;align=left;spacingLeft=30;fontColor=#147EBA;dashed=0;" parent="bEAzEr0WptyqBsVfE8B2-19" vertex="1">
          <mxGeometry x="340" y="280" width="220" height="180" as="geometry" />
        </mxCell>
        <mxCell id="d41b4V_GOKGaRPu8X4h3-19" value="ECS Cluster" style="sketch=0;points=[[0,0,0],[0.25,0,0],[0.5,0,0],[0.75,0,0],[1,0,0],[0,1,0],[0.25,1,0],[0.5,1,0],[0.75,1,0],[1,1,0],[0,0.25,0],[0,0.5,0],[0,0.75,0],[1,0.25,0],[1,0.5,0],[1,0.75,0]];outlineConnect=0;fontColor=#232F3E;fillColor=#ED7100;strokeColor=#ffffff;dashed=0;verticalLabelPosition=bottom;verticalAlign=top;align=center;html=1;fontSize=12;fontStyle=0;aspect=fixed;shape=mxgraph.aws4.resourceIcon;resIcon=mxgraph.aws4.ecs;" vertex="1" parent="bEAzEr0WptyqBsVfE8B2-27">
          <mxGeometry x="79.25" y="64.25" width="51.5" height="51.5" as="geometry" />
        </mxCell>
        <mxCell id="bEAzEr0WptyqBsVfE8B2-28" value="Private 10.80.13.0/24" style="points=[[0,0],[0.25,0],[0.5,0],[0.75,0],[1,0],[1,0.25],[1,0.5],[1,0.75],[1,1],[0.75,1],[0.5,1],[0.25,1],[0,1],[0,0.75],[0,0.5],[0,0.25]];outlineConnect=0;gradientColor=none;html=1;whiteSpace=wrap;fontSize=12;fontStyle=0;container=1;pointerEvents=0;collapsible=0;recursiveResize=0;shape=mxgraph.aws4.group;grIcon=mxgraph.aws4.group_security_group;grStroke=0;strokeColor=#00A4A6;fillColor=#E6F6F7;verticalAlign=top;align=left;spacingLeft=30;fontColor=#147EBA;dashed=0;" parent="bEAzEr0WptyqBsVfE8B2-19" vertex="1">
          <mxGeometry x="340" y="470" width="220" height="180" as="geometry" />
        </mxCell>
        <mxCell id="d41b4V_GOKGaRPu8X4h3-16" value="Aurora PostgreSql" style="sketch=0;points=[[0,0,0],[0.25,0,0],[0.5,0,0],[0.75,0,0],[1,0,0],[0,1,0],[0.25,1,0],[0.5,1,0],[0.75,1,0],[1,1,0],[0,0.25,0],[0,0.5,0],[0,0.75,0],[1,0.25,0],[1,0.5,0],[1,0.75,0]];outlineConnect=0;fontColor=#232F3E;fillColor=#C925D1;strokeColor=#ffffff;dashed=0;verticalLabelPosition=bottom;verticalAlign=top;align=center;html=1;fontSize=12;fontStyle=0;aspect=fixed;shape=mxgraph.aws4.resourceIcon;resIcon=mxgraph.aws4.aurora;" vertex="1" parent="bEAzEr0WptyqBsVfE8B2-28">
          <mxGeometry x="85" y="65.5" width="50" height="50" as="geometry" />
        </mxCell>
        <mxCell id="bEAzEr0WptyqBsVfE8B2-29" value="Public 10.80.2.0/24" style="points=[[0,0],[0.25,0],[0.5,0],[0.75,0],[1,0],[1,0.25],[1,0.5],[1,0.75],[1,1],[0.75,1],[0.5,1],[0.25,1],[0,1],[0,0.75],[0,0.5],[0,0.25]];outlineConnect=0;gradientColor=none;html=1;whiteSpace=wrap;fontSize=12;fontStyle=0;container=1;pointerEvents=0;collapsible=0;recursiveResize=0;shape=mxgraph.aws4.group;grIcon=mxgraph.aws4.group_security_group;grStroke=0;strokeColor=#7AA116;fillColor=#F2F6E8;verticalAlign=top;align=left;spacingLeft=30;fontColor=#248814;dashed=0;" parent="bEAzEr0WptyqBsVfE8B2-19" vertex="1">
          <mxGeometry x="620" y="85" width="220" height="185" as="geometry" />
        </mxCell>
        <mxCell id="d41b4V_GOKGaRPu8X4h3-11" value="" style="sketch=0;outlineConnect=0;fontColor=#232F3E;gradientColor=none;strokeColor=#232F3E;fillColor=#ffffff;dashed=0;verticalLabelPosition=bottom;verticalAlign=top;align=center;html=1;fontSize=12;fontStyle=0;aspect=fixed;shape=mxgraph.aws4.resourceIcon;resIcon=mxgraph.aws4.elastic_network_interface;" vertex="1" parent="bEAzEr0WptyqBsVfE8B2-29">
          <mxGeometry x="10" y="135" width="40" height="40" as="geometry" />
        </mxCell>
        <mxCell id="bEAzEr0WptyqBsVfE8B2-30" value="Private 10.80.8.0/24" style="points=[[0,0],[0.25,0],[0.5,0],[0.75,0],[1,0],[1,0.25],[1,0.5],[1,0.75],[1,1],[0.75,1],[0.5,1],[0.25,1],[0,1],[0,0.75],[0,0.5],[0,0.25]];outlineConnect=0;gradientColor=none;html=1;whiteSpace=wrap;fontSize=12;fontStyle=0;container=1;pointerEvents=0;collapsible=0;recursiveResize=0;shape=mxgraph.aws4.group;grIcon=mxgraph.aws4.group_security_group;grStroke=0;strokeColor=#00A4A6;fillColor=#E6F6F7;verticalAlign=top;align=left;spacingLeft=30;fontColor=#147EBA;dashed=0;" parent="bEAzEr0WptyqBsVfE8B2-19" vertex="1">
          <mxGeometry x="620" y="275" width="220" height="185" as="geometry" />
        </mxCell>
        <mxCell id="bEAzEr0WptyqBsVfE8B2-31" value="Private 10.80.14.0/24" style="points=[[0,0],[0.25,0],[0.5,0],[0.75,0],[1,0],[1,0.25],[1,0.5],[1,0.75],[1,1],[0.75,1],[0.5,1],[0.25,1],[0,1],[0,0.75],[0,0.5],[0,0.25]];outlineConnect=0;gradientColor=none;html=1;whiteSpace=wrap;fontSize=12;fontStyle=0;container=1;pointerEvents=0;collapsible=0;recursiveResize=0;shape=mxgraph.aws4.group;grIcon=mxgraph.aws4.group_security_group;grStroke=0;strokeColor=#00A4A6;fillColor=#E6F6F7;verticalAlign=top;align=left;spacingLeft=30;fontColor=#147EBA;dashed=0;" parent="bEAzEr0WptyqBsVfE8B2-19" vertex="1">
          <mxGeometry x="620" y="468" width="220" height="185" as="geometry" />
        </mxCell>
        <mxCell id="d41b4V_GOKGaRPu8X4h3-9" value="NATGW" style="outlineConnect=0;dashed=0;verticalLabelPosition=bottom;verticalAlign=top;align=center;html=1;shape=mxgraph.aws3.vpc_nat_gateway;fillColor=#F58534;gradientColor=none;" vertex="1" parent="bEAzEr0WptyqBsVfE8B2-19">
          <mxGeometry x="350" y="130" width="30" height="30" as="geometry" />
        </mxCell>
        <mxCell id="d41b4V_GOKGaRPu8X4h3-10" value="" style="sketch=0;outlineConnect=0;fontColor=#232F3E;gradientColor=none;strokeColor=#232F3E;fillColor=#ffffff;dashed=0;verticalLabelPosition=bottom;verticalAlign=top;align=center;html=1;fontSize=12;fontStyle=0;aspect=fixed;shape=mxgraph.aws4.resourceIcon;resIcon=mxgraph.aws4.elastic_network_interface;" vertex="1" parent="bEAzEr0WptyqBsVfE8B2-19">
          <mxGeometry x="230" y="220" width="40" height="40" as="geometry" />
        </mxCell>
        <mxCell id="d41b4V_GOKGaRPu8X4h3-12" style="edgeStyle=orthogonalEdgeStyle;rounded=0;orthogonalLoop=1;jettySize=auto;html=1;endArrow=none;endFill=0;dashed=1;" edge="1" parent="bEAzEr0WptyqBsVfE8B2-19" source="d41b4V_GOKGaRPu8X4h3-2" target="d41b4V_GOKGaRPu8X4h3-11">
          <mxGeometry relative="1" as="geometry">
            <Array as="points">
              <mxPoint x="650" y="215" />
            </Array>
          </mxGeometry>
        </mxCell>
        <mxCell id="d41b4V_GOKGaRPu8X4h3-13" style="edgeStyle=orthogonalEdgeStyle;rounded=0;orthogonalLoop=1;jettySize=auto;html=1;endArrow=none;endFill=0;dashed=1;" edge="1" parent="bEAzEr0WptyqBsVfE8B2-19" source="d41b4V_GOKGaRPu8X4h3-2" target="d41b4V_GOKGaRPu8X4h3-10">
          <mxGeometry relative="1" as="geometry">
            <Array as="points">
              <mxPoint x="250" y="215" />
            </Array>
          </mxGeometry>
        </mxCell>
        <mxCell id="JZfbueY3oxo93cXWS5LI-8" value="IGW" style="outlineConnect=0;dashed=0;verticalLabelPosition=top;verticalAlign=bottom;align=center;html=1;shape=mxgraph.aws3.internet_gateway;fillColor=#F58534;gradientColor=none;labelPosition=center;" parent="bEAzEr0WptyqBsVfE8B2-18" vertex="1">
          <mxGeometry x="455.25" y="20" width="54.5" height="52" as="geometry" />
        </mxCell>
        <mxCell id="JZfbueY3oxo93cXWS5LI-7" value="IGW" style="outlineConnect=0;dashed=0;verticalLabelPosition=top;verticalAlign=bottom;align=center;html=1;shape=mxgraph.aws3.internet_gateway;fillColor=#F58534;gradientColor=none;labelPosition=center;" parent="1" vertex="1">
          <mxGeometry x="582.75" y="160" width="54.5" height="52" as="geometry" />
        </mxCell>
      </root>
    </mxGraphModel>
  </diagram>
</mxfile>
